<?xml version="1.0" encoding="UTF-8" standalone="no"?>
<svg width="31px" height="26px" viewBox="0 0 31 26" version="1.1" xmlns="http://www.w3.org/2000/svg" xmlns:xlink="http://www.w3.org/1999/xlink" xmlns:sketch="http://www.bohemiancoding.com/sketch/ns">
  <!-- Generator: Sketch 3.3.2 (12043) - http://www.bohemiancoding.com/sketch -->
  <title>Slice 1</title>
  <desc>Created with Sketch.</desc>
  <defs></defs>
  <g id="Page-1" stroke="none" stroke-width="1" fill="none" fill-rule="evenodd" sketch:type="MSPage">
    <g id="icon_heart" sketch:type="MSLayerGroup" fill="#D00101">
      <g id="Page-1" sketch:type="MSShapeGroup">
        <g id="PROTOPAGE">
          <g id="Group">
            <path d="M23.7,0.5 C25.2,0.5 26.6,0.9 27.7,1.7 C28.8,2.5 29.7,3.5 30.2,4.7 C30.7,5.9 30.9,7.2 30.9,8.5 C30.9,9.8 30.6,11 30,12 C29,13.9 27.3,15.9 24.9,18.1 C22.5,20.3 20.5,22 18.6,23.3 L15.9,25.2 C15.6,25 15.2,24.8 14.7,24.4 C14.2,24.1 13.3,23.4 11.9,22.4 C10.5,21.4 9.3,20.4 8.1,19.4 C7,18.4 5.8,17.2 4.5,15.9 C3.3,14.5 2.3,13.3 1.7,12.1 C1.1,11.1 0.8,9.9 0.8,8.6 C0.8,7.3 1,6 1.5,4.8 C2,3.6 2.8,2.6 3.9,1.8 C5,1 6.4,0.6 8,0.6 C9.4,0.6 10.6,0.9 11.7,1.4 C12.8,1.9 13.6,2.6 14.1,3.4 C14.6,4.2 15,4.8 15.3,5.3 C15.5,5.8 15.7,6.2 15.8,6.6 C15.9,6.2 16.1,5.8 16.3,5.3 C16.5,4.8 16.9,4.2 17.5,3.4 C18,2.6 18.9,1.9 19.9,1.4 C21.1,0.8 22.4,0.5 23.7,0.5 L23.7,0.5 Z" id="Shape"></path>
          </g>
        </g>
      </g>
    </g>
  </g>
</svg>
